<mxfile modified="2022-04-28T09:18:16.434Z" host="app.diagrams.net" agent="5.0 (Windows NT 10.0; Win64; x64) AppleWebKit/537.36 (KHTML, like Gecko) Chrome/100.0.4896.127 Safari/537.36" etag="jz4nST9j34wKGAnawTAn" version="17.4.6" type="github">
  <diagram id="f106602c-feb2-e66a-4537-3a34d633f6aa" name="Page-1">
    <mxGraphModel dx="1038" dy="523" grid="1" gridSize="10" guides="1" tooltips="1" connect="1" arrows="1" fold="1" page="1" pageScale="1" pageWidth="1169" pageHeight="827" background="none" math="0" shadow="0">
      <root>
        <mxCell id="0" />
        <mxCell id="1" parent="0" />
        <mxCell id="j8ihXcEk8kIL5qcv9CaY-42" value="" style="whiteSpace=wrap;html=1;fillColor=#FFF0F9;strokeColor=#FFD9EC;" vertex="1" parent="1">
          <mxGeometry x="450" y="630" width="300" height="110" as="geometry" />
        </mxCell>
        <mxCell id="j8ihXcEk8kIL5qcv9CaY-31" value="" style="verticalLabelPosition=bottom;verticalAlign=top;html=1;shape=mxgraph.basic.rect;fillColor2=none;strokeWidth=1;size=20;indent=5;fillColor=#DDEBFF;strokeColor=#6c8ebf;" vertex="1" parent="1">
          <mxGeometry x="120" y="40.94" width="250.75" height="489.06" as="geometry" />
        </mxCell>
        <mxCell id="j8ihXcEk8kIL5qcv9CaY-30" value="" style="verticalLabelPosition=bottom;verticalAlign=top;html=1;shape=mxgraph.basic.rect;fillColor2=none;strokeWidth=1;size=20;indent=5;fillColor=#F5FFF5;strokeColor=#82b366;" vertex="1" parent="1">
          <mxGeometry x="460" y="40.94" width="390" height="489.99" as="geometry" />
        </mxCell>
        <mxCell id="j8ihXcEk8kIL5qcv9CaY-57" style="edgeStyle=orthogonalEdgeStyle;rounded=0;orthogonalLoop=1;jettySize=auto;html=1;entryX=0.75;entryY=0;entryDx=0;entryDy=0;" edge="1" parent="1" source="oRG_ObDm1Sq0MpDUjUs1-2" target="oRG_ObDm1Sq0MpDUjUs1-4">
          <mxGeometry relative="1" as="geometry">
            <Array as="points">
              <mxPoint x="744" y="220" />
              <mxPoint x="590" y="220" />
            </Array>
          </mxGeometry>
        </mxCell>
        <mxCell id="oRG_ObDm1Sq0MpDUjUs1-2" value="" style="strokeColor=#dddddd;shadow=1;strokeWidth=1;rounded=1;absoluteArcSize=1;arcSize=2;" parent="1" vertex="1">
          <mxGeometry x="670" y="88.42999999999995" width="148.36" height="51.57" as="geometry" />
        </mxCell>
        <mxCell id="oRG_ObDm1Sq0MpDUjUs1-3" value="&lt;font color=&quot;#000000&quot;&gt;&lt;font style=&quot;font-size: 6px&quot;&gt;Script Bucket&lt;/font&gt;&lt;br&gt;&lt;/font&gt;&lt;hr&gt;&lt;font style=&quot;font-size: 9px&quot;&gt;Cloud Storage&lt;/font&gt;" style="sketch=0;dashed=0;connectable=0;html=1;fillColor=#5184F3;strokeColor=none;shape=mxgraph.gcp2.hexIcon;prIcon=cloud_storage;part=1;labelPosition=right;verticalLabelPosition=middle;align=left;verticalAlign=middle;spacingLeft=5;fontColor=#999999;fontSize=12;" parent="oRG_ObDm1Sq0MpDUjUs1-2" vertex="1">
          <mxGeometry y="0.5" width="44" height="39" relative="1" as="geometry">
            <mxPoint x="5" y="-19.5" as="offset" />
          </mxGeometry>
        </mxCell>
        <mxCell id="j8ihXcEk8kIL5qcv9CaY-52" style="edgeStyle=orthogonalEdgeStyle;rounded=0;orthogonalLoop=1;jettySize=auto;html=1;" edge="1" parent="1" source="oRG_ObDm1Sq0MpDUjUs1-4" target="oRG_ObDm1Sq0MpDUjUs1-14">
          <mxGeometry relative="1" as="geometry" />
        </mxCell>
        <mxCell id="j8ihXcEk8kIL5qcv9CaY-54" style="edgeStyle=orthogonalEdgeStyle;rounded=0;orthogonalLoop=1;jettySize=auto;html=1;" edge="1" parent="1" source="oRG_ObDm1Sq0MpDUjUs1-4" target="oRG_ObDm1Sq0MpDUjUs1-10">
          <mxGeometry relative="1" as="geometry" />
        </mxCell>
        <mxCell id="oRG_ObDm1Sq0MpDUjUs1-4" value="" style="strokeColor=#dddddd;shadow=1;strokeWidth=1;rounded=1;absoluteArcSize=1;arcSize=2;" parent="1" vertex="1">
          <mxGeometry x="476.33000000000004" y="240" width="152.14" height="56" as="geometry" />
        </mxCell>
        <mxCell id="oRG_ObDm1Sq0MpDUjUs1-5" value="&lt;font color=&quot;#000000&quot;&gt;&amp;nbsp; Job Engine&amp;nbsp;&lt;br&gt;&lt;/font&gt;&lt;hr&gt;Cloud Function" style="sketch=0;dashed=0;connectable=0;html=1;fillColor=#5184F3;strokeColor=none;shape=mxgraph.gcp2.hexIcon;prIcon=cloud_functions;part=1;labelPosition=right;verticalLabelPosition=middle;align=left;verticalAlign=middle;spacingLeft=5;fontColor=#999999;fontSize=12;" parent="oRG_ObDm1Sq0MpDUjUs1-4" vertex="1">
          <mxGeometry y="0.5" width="44" height="39" relative="1" as="geometry">
            <mxPoint x="5" y="-19.5" as="offset" />
          </mxGeometry>
        </mxCell>
        <mxCell id="j8ihXcEk8kIL5qcv9CaY-51" style="edgeStyle=orthogonalEdgeStyle;rounded=0;orthogonalLoop=1;jettySize=auto;html=1;entryX=0.5;entryY=0;entryDx=0;entryDy=0;" edge="1" parent="oRG_ObDm1Sq0MpDUjUs1-4" source="j8ihXcEk8kIL5qcv9CaY-44" target="oRG_ObDm1Sq0MpDUjUs1-4">
          <mxGeometry relative="1" as="geometry" />
        </mxCell>
        <mxCell id="j8ihXcEk8kIL5qcv9CaY-44" value="" style="strokeColor=#dddddd;shadow=1;strokeWidth=1;rounded=1;absoluteArcSize=1;arcSize=2;fontColor=#000000;" vertex="1" parent="oRG_ObDm1Sq0MpDUjUs1-4">
          <mxGeometry x="-0.6100000000000136" y="-90" width="152.75" height="50" as="geometry" />
        </mxCell>
        <mxCell id="j8ihXcEk8kIL5qcv9CaY-45" value="&#xa;&#xa;&lt;font color=&quot;#000000&quot; style=&quot;font-family: helvetica; font-size: 12px; font-style: normal; font-weight: 400; letter-spacing: normal; text-align: left; text-indent: 0px; text-transform: none; word-spacing: 0px; background-color: rgb(248, 249, 250);&quot;&gt;Trigger Topic&lt;br&gt;&lt;/font&gt;&lt;hr style=&quot;color: rgb(153, 153, 153); font-family: helvetica; font-size: 12px; font-style: normal; font-weight: 400; letter-spacing: normal; text-align: left; text-indent: 0px; text-transform: none; word-spacing: 0px; background-color: rgb(248, 249, 250);&quot;&gt;&lt;span style=&quot;color: rgb(153, 153, 153); font-family: helvetica; font-size: 12px; font-style: normal; font-weight: 400; letter-spacing: normal; text-align: left; text-indent: 0px; text-transform: none; word-spacing: 0px; background-color: rgb(248, 249, 250); display: inline; float: none;&quot;&gt;Cloud Pub/Sub&lt;/span&gt;&#xa;&#xa;" style="sketch=0;dashed=0;connectable=0;html=1;fillColor=#5184F3;strokeColor=none;shape=mxgraph.gcp2.hexIcon;prIcon=cloud_pubsub;part=1;labelPosition=right;verticalLabelPosition=middle;align=left;verticalAlign=middle;spacingLeft=5;fontColor=#999999;fontSize=12;" vertex="1" parent="j8ihXcEk8kIL5qcv9CaY-44">
          <mxGeometry y="0.5" width="44" height="39" relative="1" as="geometry">
            <mxPoint x="5" y="-19.5" as="offset" />
          </mxGeometry>
        </mxCell>
        <mxCell id="j8ihXcEk8kIL5qcv9CaY-55" style="edgeStyle=orthogonalEdgeStyle;rounded=0;orthogonalLoop=1;jettySize=auto;html=1;" edge="1" parent="oRG_ObDm1Sq0MpDUjUs1-4" source="oRG_ObDm1Sq0MpDUjUs1-4" target="j8ihXcEk8kIL5qcv9CaY-44">
          <mxGeometry relative="1" as="geometry" />
        </mxCell>
        <mxCell id="oRG_ObDm1Sq0MpDUjUs1-10" value="" style="strokeColor=#dddddd;shadow=1;strokeWidth=1;rounded=1;absoluteArcSize=1;arcSize=2;fontColor=#000000;" parent="1" vertex="1">
          <mxGeometry x="672.89" y="241" width="145.47" height="53" as="geometry" />
        </mxCell>
        <mxCell id="oRG_ObDm1Sq0MpDUjUs1-11" value="&lt;font color=&quot;#000000&quot;&gt;Data Storage&lt;br&gt;&lt;/font&gt;&lt;hr&gt;&amp;nbsp; &amp;nbsp;BigQuery" style="sketch=0;dashed=0;connectable=0;html=1;fillColor=#5184F3;strokeColor=none;shape=mxgraph.gcp2.hexIcon;prIcon=bigquery;part=1;labelPosition=right;verticalLabelPosition=middle;align=left;verticalAlign=middle;spacingLeft=5;fontColor=#999999;fontSize=12;" parent="oRG_ObDm1Sq0MpDUjUs1-10" vertex="1">
          <mxGeometry y="0.5" width="44" height="39" relative="1" as="geometry">
            <mxPoint x="5" y="-19.5" as="offset" />
          </mxGeometry>
        </mxCell>
        <mxCell id="oRG_ObDm1Sq0MpDUjUs1-12" value="" style="strokeColor=#dddddd;shadow=1;strokeWidth=1;rounded=1;absoluteArcSize=1;arcSize=2;" parent="1" vertex="1">
          <mxGeometry x="475.56500000000005" y="420" width="153.06" height="60" as="geometry" />
        </mxCell>
        <mxCell id="oRG_ObDm1Sq0MpDUjUs1-13" value="&lt;font color=&quot;#000000&quot;&gt;&amp;nbsp;Notification Func&amp;nbsp;&lt;br&gt;&lt;/font&gt;&lt;hr&gt;&amp;nbsp; Cloud Function" style="sketch=0;dashed=0;connectable=0;html=1;fillColor=#5184F3;strokeColor=none;shape=mxgraph.gcp2.hexIcon;prIcon=cloud_functions;part=1;labelPosition=right;verticalLabelPosition=middle;align=left;verticalAlign=middle;spacingLeft=5;fontColor=#999999;fontSize=12;" parent="oRG_ObDm1Sq0MpDUjUs1-12" vertex="1">
          <mxGeometry y="0.5" width="44" height="39" relative="1" as="geometry">
            <mxPoint x="5" y="-19.5" as="offset" />
          </mxGeometry>
        </mxCell>
        <mxCell id="j8ihXcEk8kIL5qcv9CaY-53" value="" style="edgeStyle=orthogonalEdgeStyle;rounded=0;orthogonalLoop=1;jettySize=auto;html=1;" edge="1" parent="1" source="oRG_ObDm1Sq0MpDUjUs1-14" target="oRG_ObDm1Sq0MpDUjUs1-12">
          <mxGeometry relative="1" as="geometry" />
        </mxCell>
        <mxCell id="oRG_ObDm1Sq0MpDUjUs1-14" value="" style="strokeColor=#dddddd;shadow=1;strokeWidth=1;rounded=1;absoluteArcSize=1;arcSize=2;fontColor=#000000;" parent="1" vertex="1">
          <mxGeometry x="475.56500000000005" y="330" width="153.06" height="60" as="geometry" />
        </mxCell>
        <mxCell id="oRG_ObDm1Sq0MpDUjUs1-15" value="&lt;font color=&quot;#000000&quot;&gt;Notification Topic&lt;br&gt;&lt;/font&gt;&lt;hr&gt;&lt;font style=&quot;font-size: 11px&quot;&gt;Cloud Pub/Sub&lt;/font&gt;" style="sketch=0;dashed=0;connectable=0;html=1;fillColor=#5184F3;strokeColor=none;shape=mxgraph.gcp2.hexIcon;prIcon=cloud_pubsub;part=1;labelPosition=right;verticalLabelPosition=middle;align=left;verticalAlign=middle;spacingLeft=5;fontColor=#999999;fontSize=12;" parent="oRG_ObDm1Sq0MpDUjUs1-14" vertex="1">
          <mxGeometry y="0.5" width="44" height="39" relative="1" as="geometry">
            <mxPoint x="5" y="-19.5" as="offset" />
          </mxGeometry>
        </mxCell>
        <mxCell id="bpUo_FdMC0Z0EyupxBaY-35" style="edgeStyle=orthogonalEdgeStyle;rounded=0;orthogonalLoop=1;jettySize=auto;html=1;entryX=0.018;entryY=0.515;entryDx=0;entryDy=0;entryPerimeter=0;fillColor=#fad7ac;strokeColor=#b46504;" parent="1" source="bpUo_FdMC0Z0EyupxBaY-34" target="bpUo_FdMC0Z0EyupxBaY-26" edge="1">
          <mxGeometry relative="1" as="geometry" />
        </mxCell>
        <mxCell id="bpUo_FdMC0Z0EyupxBaY-34" value="" style="verticalLabelPosition=bottom;html=1;verticalAlign=top;align=center;strokeColor=#3700CC;fillColor=#6a00ff;shape=mxgraph.azure.user;rounded=0;shadow=0;glass=0;sketch=0;fontColor=#ffffff;" parent="1" vertex="1">
          <mxGeometry x="150" y="75.35000000000001" width="20" height="24.66" as="geometry" />
        </mxCell>
        <mxCell id="bpUo_FdMC0Z0EyupxBaY-18" value="" style="group" parent="1" vertex="1" connectable="0">
          <mxGeometry x="240" y="140" width="120" height="50" as="geometry" />
        </mxCell>
        <mxCell id="bpUo_FdMC0Z0EyupxBaY-15" value="" style="strokeColor=#dddddd;shadow=1;strokeWidth=1;rounded=1;absoluteArcSize=1;arcSize=2;" parent="bpUo_FdMC0Z0EyupxBaY-18" vertex="1">
          <mxGeometry width="119.99999999999999" height="50" as="geometry" />
        </mxCell>
        <mxCell id="bpUo_FdMC0Z0EyupxBaY-16" value="&lt;blockquote style=&quot;margin: 0 0 0 40px ; border: none ; padding: 0px&quot;&gt;&lt;span style=&quot;font-size: 11px&quot;&gt;Job Folder&lt;/span&gt;&lt;/blockquote&gt;&lt;blockquote style=&quot;margin: 0 0 0 40px ; border: none ; padding: 0px&quot;&gt;&lt;font style=&quot;font-size: 11px&quot;&gt;&lt;hr&gt;Git Repo&lt;/font&gt;&lt;/blockquote&gt;" style="text;html=1;resizable=0;autosize=1;align=center;verticalAlign=middle;points=[];fillColor=none;strokeColor=none;rounded=0;" parent="bpUo_FdMC0Z0EyupxBaY-18" vertex="1">
          <mxGeometry y="-3.9714285714285715" width="110" height="50" as="geometry" />
        </mxCell>
        <mxCell id="lQKMeBecdqRDSWAY5cYK-1" value="" style="shape=image;html=1;verticalAlign=top;verticalLabelPosition=bottom;labelBackgroundColor=#ffffff;imageAspect=0;aspect=fixed;image=https://cdn3.iconfinder.com/data/icons/social-media-2169/24/social_media_social_media_logo_git-128.png" parent="bpUo_FdMC0Z0EyupxBaY-18" vertex="1">
          <mxGeometry x="9.78" y="10.94" width="29.06" height="29.06" as="geometry" />
        </mxCell>
        <mxCell id="j8ihXcEk8kIL5qcv9CaY-13" value="" style="group" vertex="1" connectable="0" parent="1">
          <mxGeometry x="240" y="60" width="121.5" height="310" as="geometry" />
        </mxCell>
        <mxCell id="bpUo_FdMC0Z0EyupxBaY-25" value="" style="strokeColor=#dddddd;shadow=1;strokeWidth=1;rounded=1;absoluteArcSize=1;arcSize=2;" parent="j8ihXcEk8kIL5qcv9CaY-13" vertex="1">
          <mxGeometry x="1.5014225133764558" width="118.49857748662357" height="50" as="geometry" />
        </mxCell>
        <mxCell id="bpUo_FdMC0Z0EyupxBaY-26" value="&lt;blockquote style=&quot;margin: 0 0 0 40px ; border: none ; padding: 0px&quot;&gt;&lt;span style=&quot;font-size: 11px&quot;&gt;Job Scripts&lt;/span&gt;&lt;/blockquote&gt;&lt;blockquote style=&quot;margin: 0 0 0 40px ; border: none ; padding: 0px&quot;&gt;&lt;font style=&quot;font-size: 11px&quot;&gt;&lt;hr&gt;Folder&lt;/font&gt;&lt;/blockquote&gt;" style="text;html=1;resizable=0;autosize=1;align=center;verticalAlign=middle;points=[];fillColor=none;strokeColor=none;rounded=0;" parent="j8ihXcEk8kIL5qcv9CaY-13" vertex="1">
          <mxGeometry y="2.6785714285714364" width="110" height="50" as="geometry" />
        </mxCell>
        <mxCell id="PlTXi9dPVwTUDiqTKwLx-1074" value="" style="image;html=1;image=img/lib/clip_art/general/Full_Folder_128x128.png;fontSize=12;fontColor=#FFFFFF;fillColor=#9E1FFF;" parent="j8ihXcEk8kIL5qcv9CaY-13" vertex="1">
          <mxGeometry x="13.75254075878857" y="11.585579514824795" width="27.370181707595222" height="29.357142857142858" as="geometry" />
        </mxCell>
        <mxCell id="j8ihXcEk8kIL5qcv9CaY-70" value="" style="group" vertex="1" connectable="0" parent="j8ihXcEk8kIL5qcv9CaY-13">
          <mxGeometry x="1.5" y="290" width="120" height="50" as="geometry" />
        </mxCell>
        <mxCell id="j8ihXcEk8kIL5qcv9CaY-71" value="" style="strokeColor=#dddddd;shadow=1;strokeWidth=1;rounded=1;absoluteArcSize=1;arcSize=2;" vertex="1" parent="j8ihXcEk8kIL5qcv9CaY-70">
          <mxGeometry width="119.99999999999999" height="50" as="geometry" />
        </mxCell>
        <mxCell id="j8ihXcEk8kIL5qcv9CaY-72" value="&lt;blockquote style=&quot;margin: 0 0 0 40px ; border: none ; padding: 0px&quot;&gt;&lt;span style=&quot;font-size: 11px&quot;&gt;Depoly&lt;/span&gt;&lt;/blockquote&gt;&lt;blockquote style=&quot;margin: 0 0 0 40px ; border: none ; padding: 0px&quot;&gt;&lt;font style=&quot;font-size: 11px&quot;&gt;&lt;hr&gt;Az Pipeline&lt;/font&gt;&lt;/blockquote&gt;" style="text;html=1;resizable=0;autosize=1;align=center;verticalAlign=middle;points=[];fillColor=none;strokeColor=none;rounded=0;" vertex="1" parent="j8ihXcEk8kIL5qcv9CaY-70">
          <mxGeometry x="-5" y="-3.9714285714285715" width="120" height="50" as="geometry" />
        </mxCell>
        <mxCell id="j8ihXcEk8kIL5qcv9CaY-73" value="" style="sketch=0;aspect=fixed;html=1;points=[];align=center;image;fontSize=12;image=img/lib/mscae/Azure_Pipelines.svg;fontColor=#007FFF;fillColor=#FFEBFA;" vertex="1" parent="j8ihXcEk8kIL5qcv9CaY-70">
          <mxGeometry x="9.997748484059173" y="8.349999999999984" width="25.35" height="25.35" as="geometry" />
        </mxCell>
        <mxCell id="j8ihXcEk8kIL5qcv9CaY-14" value="" style="group" vertex="1" connectable="0" parent="1">
          <mxGeometry x="240" y="220" width="120" height="50" as="geometry" />
        </mxCell>
        <mxCell id="j8ihXcEk8kIL5qcv9CaY-15" value="" style="strokeColor=#dddddd;shadow=1;strokeWidth=1;rounded=1;absoluteArcSize=1;arcSize=2;" vertex="1" parent="j8ihXcEk8kIL5qcv9CaY-14">
          <mxGeometry width="119.99999999999999" height="50" as="geometry" />
        </mxCell>
        <mxCell id="j8ihXcEk8kIL5qcv9CaY-16" value="&lt;blockquote style=&quot;margin: 0 0 0 40px ; border: none ; padding: 0px&quot;&gt;&lt;span style=&quot;font-size: 11px&quot;&gt;Execution&lt;/span&gt;&lt;/blockquote&gt;&lt;blockquote style=&quot;margin: 0 0 0 40px ; border: none ; padding: 0px&quot;&gt;&lt;font style=&quot;font-size: 11px&quot;&gt;&lt;hr&gt;Az Pipeline&lt;/font&gt;&lt;/blockquote&gt;" style="text;html=1;resizable=0;autosize=1;align=center;verticalAlign=middle;points=[];fillColor=none;strokeColor=none;rounded=0;" vertex="1" parent="j8ihXcEk8kIL5qcv9CaY-14">
          <mxGeometry x="-5" y="-3.9714285714285715" width="120" height="50" as="geometry" />
        </mxCell>
        <mxCell id="PlTXi9dPVwTUDiqTKwLx-1064" value="" style="sketch=0;aspect=fixed;html=1;points=[];align=center;image;fontSize=12;image=img/lib/mscae/Azure_Pipelines.svg;fontColor=#007FFF;fillColor=#FFEBFA;" parent="j8ihXcEk8kIL5qcv9CaY-14" vertex="1">
          <mxGeometry x="9.997748484059173" y="8.349999999999984" width="25.35" height="25.35" as="geometry" />
        </mxCell>
        <mxCell id="j8ihXcEk8kIL5qcv9CaY-20" style="edgeStyle=orthogonalEdgeStyle;rounded=0;orthogonalLoop=1;jettySize=auto;html=1;entryX=0.53;entryY=-0.005;entryDx=0;entryDy=0;entryPerimeter=0;" edge="1" parent="1" source="bpUo_FdMC0Z0EyupxBaY-15" target="j8ihXcEk8kIL5qcv9CaY-16">
          <mxGeometry relative="1" as="geometry" />
        </mxCell>
        <mxCell id="j8ihXcEk8kIL5qcv9CaY-22" style="edgeStyle=orthogonalEdgeStyle;rounded=0;orthogonalLoop=1;jettySize=auto;html=1;entryX=0;entryY=0.5;entryDx=0;entryDy=0;strokeColor=#6666FF;" edge="1" parent="1" source="j8ihXcEk8kIL5qcv9CaY-15" target="oRG_ObDm1Sq0MpDUjUs1-2">
          <mxGeometry relative="1" as="geometry">
            <Array as="points">
              <mxPoint x="400" y="245" />
              <mxPoint x="400" y="114" />
            </Array>
          </mxGeometry>
        </mxCell>
        <mxCell id="j8ihXcEk8kIL5qcv9CaY-32" value="Ops/Dev Members" style="text;html=1;resizable=0;autosize=1;align=center;verticalAlign=middle;points=[];fillColor=none;strokeColor=none;rounded=0;" vertex="1" parent="1">
          <mxGeometry x="120" y="110" width="120" height="20" as="geometry" />
        </mxCell>
        <mxCell id="j8ihXcEk8kIL5qcv9CaY-35" value="" style="group" vertex="1" connectable="0" parent="1">
          <mxGeometry x="511" y="649" width="100" height="70" as="geometry" />
        </mxCell>
        <mxCell id="NVHOe3dstHH1mAVfR4si-49" value="" style="shape=image;html=1;verticalAlign=top;verticalLabelPosition=bottom;labelBackgroundColor=#ffffff;imageAspect=0;aspect=fixed;image=https://cdn0.iconfinder.com/data/icons/logos-microsoft-office-365/128/Microsoft_Office-10-128.png;strokeColor=#E4C2FF;fillColor=#ECCCFF;gradientColor=none;" parent="j8ihXcEk8kIL5qcv9CaY-35" vertex="1">
          <mxGeometry x="20" width="50" height="50" as="geometry" />
        </mxCell>
        <mxCell id="j8ihXcEk8kIL5qcv9CaY-34" value="Teams Channel" style="text;html=1;resizable=0;autosize=1;align=center;verticalAlign=middle;points=[];fillColor=none;strokeColor=none;rounded=0;" vertex="1" parent="j8ihXcEk8kIL5qcv9CaY-35">
          <mxGeometry y="50" width="100" height="20" as="geometry" />
        </mxCell>
        <mxCell id="j8ihXcEk8kIL5qcv9CaY-39" value="" style="group" vertex="1" connectable="0" parent="1">
          <mxGeometry x="633.06" y="654" width="100" height="65" as="geometry" />
        </mxCell>
        <mxCell id="j8ihXcEk8kIL5qcv9CaY-37" value="" style="shadow=0;dashed=0;html=1;strokeColor=none;fillColor=#EF8F21;labelPosition=center;verticalLabelPosition=bottom;verticalAlign=top;align=center;outlineConnect=0;shape=mxgraph.veeam.ms_sharepoint;" vertex="1" parent="j8ihXcEk8kIL5qcv9CaY-39">
          <mxGeometry x="16.940000000000055" width="50" height="40" as="geometry" />
        </mxCell>
        <mxCell id="j8ihXcEk8kIL5qcv9CaY-38" value="Share Point List" style="text;html=1;resizable=0;autosize=1;align=center;verticalAlign=middle;points=[];fillColor=none;strokeColor=none;rounded=0;" vertex="1" parent="j8ihXcEk8kIL5qcv9CaY-39">
          <mxGeometry y="45" width="100" height="20" as="geometry" />
        </mxCell>
        <mxCell id="j8ihXcEk8kIL5qcv9CaY-58" style="edgeStyle=orthogonalEdgeStyle;rounded=0;orthogonalLoop=1;jettySize=auto;html=1;exitX=1;exitY=0.75;exitDx=0;exitDy=0;entryX=0;entryY=0.5;entryDx=0;entryDy=0;strokeColor=#6666FF;" edge="1" parent="1" source="j8ihXcEk8kIL5qcv9CaY-15" target="j8ihXcEk8kIL5qcv9CaY-44">
          <mxGeometry relative="1" as="geometry" />
        </mxCell>
        <mxCell id="j8ihXcEk8kIL5qcv9CaY-59" value="upload" style="text;html=1;resizable=0;autosize=1;align=center;verticalAlign=middle;points=[];fillColor=none;strokeColor=none;rounded=0;" vertex="1" parent="1">
          <mxGeometry x="400" y="90" width="50" height="20" as="geometry" />
        </mxCell>
        <mxCell id="j8ihXcEk8kIL5qcv9CaY-61" value="message" style="text;html=1;resizable=0;autosize=1;align=center;verticalAlign=middle;points=[];fillColor=none;strokeColor=none;rounded=0;" vertex="1" parent="1">
          <mxGeometry x="400" y="155" width="60" height="20" as="geometry" />
        </mxCell>
        <mxCell id="j8ihXcEk8kIL5qcv9CaY-75" style="edgeStyle=orthogonalEdgeStyle;rounded=0;orthogonalLoop=1;jettySize=auto;html=1;entryX=-0.024;entryY=0.563;entryDx=0;entryDy=0;entryPerimeter=0;" edge="1" parent="1" source="j8ihXcEk8kIL5qcv9CaY-64" target="j8ihXcEk8kIL5qcv9CaY-68">
          <mxGeometry relative="1" as="geometry" />
        </mxCell>
        <mxCell id="j8ihXcEk8kIL5qcv9CaY-64" value="" style="verticalLabelPosition=bottom;html=1;verticalAlign=top;align=center;strokeColor=#3700CC;fillColor=#6a00ff;shape=mxgraph.azure.user;rounded=0;shadow=0;glass=0;sketch=0;fontColor=#ffffff;" vertex="1" parent="1">
          <mxGeometry x="155" y="445.67" width="20" height="24.66" as="geometry" />
        </mxCell>
        <mxCell id="j8ihXcEk8kIL5qcv9CaY-65" value="Dev Members" style="text;html=1;resizable=0;autosize=1;align=center;verticalAlign=middle;points=[];fillColor=none;strokeColor=none;rounded=0;" vertex="1" parent="1">
          <mxGeometry x="120" y="473" width="90" height="20" as="geometry" />
        </mxCell>
        <mxCell id="j8ihXcEk8kIL5qcv9CaY-66" value="" style="group" vertex="1" connectable="0" parent="1">
          <mxGeometry x="241" y="434" width="120" height="50" as="geometry" />
        </mxCell>
        <mxCell id="j8ihXcEk8kIL5qcv9CaY-67" value="" style="strokeColor=#dddddd;shadow=1;strokeWidth=1;rounded=1;absoluteArcSize=1;arcSize=2;" vertex="1" parent="j8ihXcEk8kIL5qcv9CaY-66">
          <mxGeometry width="119.99999999999999" height="50" as="geometry" />
        </mxCell>
        <mxCell id="j8ihXcEk8kIL5qcv9CaY-68" value="&lt;blockquote style=&quot;margin: 0 0 0 40px ; border: none ; padding: 0px&quot;&gt;&lt;span style=&quot;font-size: 11px&quot;&gt;Code&lt;/span&gt;&lt;/blockquote&gt;&lt;blockquote style=&quot;margin: 0 0 0 40px ; border: none ; padding: 0px&quot;&gt;&lt;font style=&quot;font-size: 11px&quot;&gt;&lt;hr&gt;Git Repo&lt;/font&gt;&lt;/blockquote&gt;" style="text;html=1;resizable=0;autosize=1;align=center;verticalAlign=middle;points=[];fillColor=none;strokeColor=none;rounded=0;" vertex="1" parent="j8ihXcEk8kIL5qcv9CaY-66">
          <mxGeometry x="5" y="-3.9714285714285715" width="100" height="50" as="geometry" />
        </mxCell>
        <mxCell id="j8ihXcEk8kIL5qcv9CaY-69" value="" style="shape=image;html=1;verticalAlign=top;verticalLabelPosition=bottom;labelBackgroundColor=#ffffff;imageAspect=0;aspect=fixed;image=https://cdn3.iconfinder.com/data/icons/social-media-2169/24/social_media_social_media_logo_git-128.png" vertex="1" parent="j8ihXcEk8kIL5qcv9CaY-66">
          <mxGeometry x="9.78" y="10.94" width="29.06" height="29.06" as="geometry" />
        </mxCell>
        <mxCell id="j8ihXcEk8kIL5qcv9CaY-74" style="edgeStyle=orthogonalEdgeStyle;rounded=0;orthogonalLoop=1;jettySize=auto;html=1;entryX=0.5;entryY=1;entryDx=0;entryDy=0;" edge="1" parent="1" source="j8ihXcEk8kIL5qcv9CaY-67" target="j8ihXcEk8kIL5qcv9CaY-71">
          <mxGeometry relative="1" as="geometry">
            <mxPoint x="300" y="410" as="targetPoint" />
          </mxGeometry>
        </mxCell>
        <mxCell id="j8ihXcEk8kIL5qcv9CaY-76" style="edgeStyle=orthogonalEdgeStyle;rounded=0;orthogonalLoop=1;jettySize=auto;html=1;entryX=0;entryY=0.5;entryDx=0;entryDy=0;strokeColor=#FF3333;" edge="1" parent="1" source="j8ihXcEk8kIL5qcv9CaY-71" target="oRG_ObDm1Sq0MpDUjUs1-4">
          <mxGeometry relative="1" as="geometry">
            <Array as="points">
              <mxPoint x="440" y="375" />
              <mxPoint x="440" y="268" />
            </Array>
          </mxGeometry>
        </mxCell>
        <mxCell id="j8ihXcEk8kIL5qcv9CaY-77" style="edgeStyle=orthogonalEdgeStyle;rounded=0;orthogonalLoop=1;jettySize=auto;html=1;entryX=0;entryY=0.5;entryDx=0;entryDy=0;strokeColor=#FF3333;" edge="1" parent="1" source="j8ihXcEk8kIL5qcv9CaY-71" target="oRG_ObDm1Sq0MpDUjUs1-12">
          <mxGeometry relative="1" as="geometry">
            <Array as="points">
              <mxPoint x="440" y="375" />
              <mxPoint x="440" y="450" />
            </Array>
          </mxGeometry>
        </mxCell>
        <mxCell id="j8ihXcEk8kIL5qcv9CaY-80" value="" style="edgeStyle=orthogonalEdgeStyle;rounded=0;orthogonalLoop=1;jettySize=auto;html=1;strokeColor=#FF3333;entryX=0;entryY=0.75;entryDx=0;entryDy=0;" edge="1" parent="1" source="j8ihXcEk8kIL5qcv9CaY-71" target="j8ihXcEk8kIL5qcv9CaY-44">
          <mxGeometry relative="1" as="geometry">
            <Array as="points">
              <mxPoint x="440" y="375" />
              <mxPoint x="440" y="188" />
            </Array>
          </mxGeometry>
        </mxCell>
        <mxCell id="j8ihXcEk8kIL5qcv9CaY-82" style="edgeStyle=orthogonalEdgeStyle;rounded=0;orthogonalLoop=1;jettySize=auto;html=1;entryX=0;entryY=0.5;entryDx=0;entryDy=0;strokeColor=#FF3333;exitX=0.987;exitY=0.683;exitDx=0;exitDy=0;exitPerimeter=0;" edge="1" parent="1" source="j8ihXcEk8kIL5qcv9CaY-31" target="oRG_ObDm1Sq0MpDUjUs1-14">
          <mxGeometry relative="1" as="geometry">
            <Array as="points">
              <mxPoint x="440" y="375" />
              <mxPoint x="440" y="360" />
            </Array>
          </mxGeometry>
        </mxCell>
        <mxCell id="j8ihXcEk8kIL5qcv9CaY-83" value="deploy" style="text;html=1;resizable=0;autosize=1;align=center;verticalAlign=middle;points=[];fillColor=none;strokeColor=none;rounded=0;" vertex="1" parent="1">
          <mxGeometry x="380" y="350" width="50" height="20" as="geometry" />
        </mxCell>
      </root>
    </mxGraphModel>
  </diagram>
</mxfile>
